<svg xmlns="http://www.w3.org/2000/svg" xmlns:xlink="http://www.w3.org/1999/xlink" version="1.1" width="320" height="60" viewBox="0 0 320 60" xml:space="preserve">
<desc>Created with Fabric.js 3.5.0</desc>
<defs>
</defs>
<rect x="0" y="0" width="100%" height="100%" fill="#e7e2dd"/>
<g transform="matrix(1 0 0 1 160 30)" style="" id="14281">
		
<path xml:space="preserve" font-family="Acme" font-size="24" font-style="normal" font-weight="normal" style="stroke: none; stroke-width: 1; stroke-dasharray: none; stroke-linecap: butt; stroke-dashoffset: 0; stroke-linejoin: miter; stroke-miterlimit: 4; is-custom-font: none; font-file-url: none; fill: rgb(115,14,14); fill-opacity: 0.82; fill-rule: nonzero; opacity: 1; white-space: pre;" d="M-83.21 7.80L-83.21 7.80Q-85.87 7.80-87.70 5.57Q-89.52 3.34-89.52 0.10L-89.52 0.10Q-89.52-3.86-87.32-6.57Q-85.13-9.28-81.94-9.28L-81.94-9.28Q-80.69-9.28-79.62-9.03Q-78.55-8.78-78.10-8.52L-78.10-8.52L-77.66-8.25L-79.30-4.92Q-79.85-5.40-80.86-5.82Q-81.86-6.24-82.68-6.24L-82.68-6.24Q-84.34-6.24-85.33-4.87Q-86.33-3.50-86.33-0.97Q-86.33 1.56-85.30 3.18Q-84.26 4.80-82.49 4.80L-82.49 4.80Q-81.34 4.80-80.40 4.08Q-79.46 3.36-79.08 2.16L-79.08 2.16L-77.09 3.32Q-77.88 5.43-79.51 6.62Q-81.14 7.80-83.21 7.80Z"/><path xml:space="preserve" font-family="Acme" font-size="24" font-style="normal" font-weight="normal" style="stroke: none; stroke-width: 1; stroke-dasharray: none; stroke-linecap: butt; stroke-dashoffset: 0; stroke-linejoin: miter; stroke-miterlimit: 4; is-custom-font: none; font-file-url: none; fill: rgb(115,14,14); fill-opacity: 0.82; fill-rule: nonzero; opacity: 1; white-space: pre;" d="M-74.09-4.05L-74.09-4.05L-71.18-4.68Q-70.97-2.83-70.90-1.17L-70.90-1.17Q-68.71-4.56-66.79-4.56L-66.79-4.56L-67.06-0.81Q-68.45-0.81-69.25-0.56Q-70.06-0.31-70.90 0.44L-70.90 0.44L-70.90 1.30L-70.63 6.94L-73.85 7.54L-73.56 1.71Q-73.66-1.51-74.09-4.05Z"/><path xml:space="preserve" font-family="Acme" font-size="24" font-style="normal" font-weight="normal" style="stroke: none; stroke-width: 1; stroke-dasharray: none; stroke-linecap: butt; stroke-dashoffset: 0; stroke-linejoin: miter; stroke-miterlimit: 4; is-custom-font: none; font-file-url: none; fill: rgb(115,14,14); fill-opacity: 0.82; fill-rule: nonzero; opacity: 1; white-space: pre;" d="M-61.08 7.54Q-62.50 7.54-63.40 6.64Q-64.30 5.74-64.30 4.22Q-64.30 2.69-62.90 1.58Q-61.51 0.46-59.52 0.46L-59.52 0.46L-57.89 0.46L-57.89 0.05Q-57.89-1.12-58.37-1.56Q-58.85-1.99-60.17-1.99L-60.17-1.99Q-60.72-1.99-61.48-1.76Q-62.23-1.53-63.17-1.05L-63.17-1.05L-63.86-2.95Q-62.83-3.67-61.36-4.24Q-59.88-4.82-58.92-4.82L-58.92-4.82Q-55.15-4.82-55.15-1.17L-55.15-1.17L-55.15 3.53Q-55.15 4.88-54.31 6.53L-54.31 6.53L-56.86 7.61Q-57.46 6.46-57.74 5.55L-57.74 5.55Q-59.06 7.54-61.08 7.54L-61.08 7.54ZM-60.07 5.09L-60.07 5.09Q-59.11 5.09-57.89 4.11L-57.89 4.11L-57.89 2.50Q-59.16 2.21-59.95 2.21L-59.95 2.21Q-61.46 2.21-61.46 3.56L-61.46 3.56Q-61.46 4.25-61.08 4.67Q-60.70 5.09-60.07 5.09Z"/><path xml:space="preserve" font-family="Acme" font-size="24" font-style="normal" font-weight="normal" style="stroke: none; stroke-width: 1; stroke-dasharray: none; stroke-linecap: butt; stroke-dashoffset: 0; stroke-linejoin: miter; stroke-miterlimit: 4; is-custom-font: none; font-file-url: none; fill: rgb(115,14,14); fill-opacity: 0.82; fill-rule: nonzero; opacity: 1; white-space: pre;" d="M-43.27-10.82L-44.02-8.08Q-44.90-8.30-45.62-8.30Q-46.34-8.30-46.67-7.87Q-46.99-7.44-46.99-6.36L-46.99-6.36L-47.02-4.08L-44.42-4.08L-44.69-2.11L-47.02-2.11L-47.04 1.30L-46.78 6.94L-50.02 7.54L-49.73 1.71L-49.82-2.11L-51.41-2.11L-51.14-4.08L-49.87-4.08L-49.90-5.90Q-49.90-8.04-48.58-9.54Q-47.26-11.04-45.36-11.04L-45.36-11.04Q-44.35-11.04-43.27-10.82L-43.27-10.82Z"/><path xml:space="preserve" font-family="Acme" font-size="24" font-style="normal" font-weight="normal" style="stroke: none; stroke-width: 1; stroke-dasharray: none; stroke-linecap: butt; stroke-dashoffset: 0; stroke-linejoin: miter; stroke-miterlimit: 4; is-custom-font: none; font-file-url: none; fill: rgb(115,14,14); fill-opacity: 0.82; fill-rule: nonzero; opacity: 1; white-space: pre;" d="M-41.81-4.08L-40.42-4.08L-40.42-6.69L-37.18-7.32L-37.49-4.08L-34.58-4.08L-34.85-2.11L-37.58-2.11L-37.70 2.91Q-37.70 4.04-37.49 4.41Q-37.27 4.78-36.70 4.78Q-36.12 4.78-35.16 4.52L-35.16 4.52L-35.02 6.22Q-36.60 7.54-37.80 7.54Q-39 7.54-39.77 6.66Q-40.54 5.79-40.54 4.37L-40.54 4.37L-40.39 1.68L-40.42-2.11L-42.07-2.11L-41.81-4.08Z"/><path xml:space="preserve" font-family="Acme" font-size="24" font-style="normal" font-weight="normal" style="stroke: none; stroke-width: 1; stroke-dasharray: none; stroke-linecap: butt; stroke-dashoffset: 0; stroke-linejoin: miter; stroke-miterlimit: 4; is-custom-font: none; font-file-url: none; fill: rgb(115,14,14); fill-opacity: 0.82; fill-rule: nonzero; opacity: 1; white-space: pre;" d="M-27.60 12.82L-30.70 12.17L-28.22 6.63L-30 1.78L-32.42-4.05L-29.23-4.65L-27.70 0.46L-26.90 2.88L-26.59 2.88L-26.02 1.13L-24.29-4.68L-21.34-4.32L-25.58 6.84L-27.60 12.82Z"/><path xml:space="preserve" font-family="Acme" font-size="24" font-style="normal" font-weight="normal" style="stroke: none; stroke-width: 1; stroke-dasharray: none; stroke-linecap: butt; stroke-dashoffset: 0; stroke-linejoin: miter; stroke-miterlimit: 4; is-custom-font: none; font-file-url: none; fill: rgb(115,14,14); fill-opacity: 0.82; fill-rule: nonzero; opacity: 1; white-space: pre;" d=""/><path xml:space="preserve" font-family="Acme" font-size="24" font-style="normal" font-weight="normal" style="stroke: none; stroke-width: 1; stroke-dasharray: none; stroke-linecap: butt; stroke-dashoffset: 0; stroke-linejoin: miter; stroke-miterlimit: 4; is-custom-font: none; font-file-url: none; fill: rgb(115,14,14); fill-opacity: 0.82; fill-rule: nonzero; opacity: 1; white-space: pre;" d="M-3.36-9.02L-3.62-6.45L-8.74-6.45L-8.88-2.04L-4.30-2.04L-4.56 0.51L-8.95 0.51L-8.98 1.30L-8.69 7.54L-12.05 7.54L-11.76 1.71L-12.05-9.02L-3.36-9.02Z"/><path xml:space="preserve" font-family="Acme" font-size="24" font-style="normal" font-weight="normal" style="stroke: none; stroke-width: 1; stroke-dasharray: none; stroke-linecap: butt; stroke-dashoffset: 0; stroke-linejoin: miter; stroke-miterlimit: 4; is-custom-font: none; font-file-url: none; fill: rgb(115,14,14); fill-opacity: 0.82; fill-rule: nonzero; opacity: 1; white-space: pre;" d="M2.71 7.54L2.71 7.54Q1.42 7.54 0.61 6.69Q-0.19 5.84-0.19 4.44L-0.19 4.44L-0.05 1.68L-0.31-4.08L2.90-4.68L2.59 2.62Q2.59 3.65 2.96 4.13Q3.34 4.61 4.15 4.61Q4.97 4.61 6.41 3.80L6.41 3.80L6.41 2.36L6.14-3.96L9.38-4.56L9.10 1.44L9.12 3.41Q9.12 4.95 9.91 6.51L9.91 6.51L7.42 7.61Q6.62 6.05 6.46 5.12L6.46 5.12Q4.30 7.54 2.71 7.54Z"/><path xml:space="preserve" font-family="Acme" font-size="24" font-style="normal" font-weight="normal" style="stroke: none; stroke-width: 1; stroke-dasharray: none; stroke-linecap: butt; stroke-dashoffset: 0; stroke-linejoin: miter; stroke-miterlimit: 4; is-custom-font: none; font-file-url: none; fill: rgb(115,14,14); fill-opacity: 0.82; fill-rule: nonzero; opacity: 1; white-space: pre;" d="M13.61-4.05L13.61-4.05L16.51-4.68Q16.73-2.83 16.80-1.17L16.80-1.17Q18.98-4.56 20.90-4.56L20.90-4.56L20.64-0.81Q19.25-0.81 18.44-0.56Q17.64-0.31 16.80 0.44L16.80 0.44L16.80 1.30L17.06 6.94L13.85 7.54L14.14 1.71Q14.04-1.51 13.61-4.05Z"/><path xml:space="preserve" font-family="Acme" font-size="24" font-style="normal" font-weight="normal" style="stroke: none; stroke-width: 1; stroke-dasharray: none; stroke-linecap: butt; stroke-dashoffset: 0; stroke-linejoin: miter; stroke-miterlimit: 4; is-custom-font: none; font-file-url: none; fill: rgb(115,14,14); fill-opacity: 0.82; fill-rule: nonzero; opacity: 1; white-space: pre;" d="M31.18 1.47Q31.18-0.19 30.89-0.74Q30.60-1.29 29.54-1.29Q28.49-1.29 27.14-0.45L27.14-0.45L27.14 1.30L27.41 6.94L24.19 7.54L24.48 1.71Q24.38-1.51 23.95-4.05L23.95-4.05L26.86-4.68Q27.02-3.28 27.10-1.96L27.10-1.96Q27.46-2.44 27.91-2.91Q28.37-3.38 29.35-3.97Q30.34-4.56 31.43-4.56Q32.52-4.56 33.26-3.70Q34.01-2.85 34.01-1.39L34.01-1.39L33.86 1.30L34.13 7.06L30.89 7.66L31.18 1.47Z"/><path xml:space="preserve" font-family="Acme" font-size="24" font-style="normal" font-weight="normal" style="stroke: none; stroke-width: 1; stroke-dasharray: none; stroke-linecap: butt; stroke-dashoffset: 0; stroke-linejoin: miter; stroke-miterlimit: 4; is-custom-font: none; font-file-url: none; fill: rgb(115,14,14); fill-opacity: 0.82; fill-rule: nonzero; opacity: 1; white-space: pre;" d="M38.57-4.08L41.78-4.68L41.50 1.30L41.76 6.94L38.54 7.54L38.83 1.71L38.57-4.08ZM38.40-8.19Q38.40-9.00 39.02-9.63Q39.65-10.27 40.46-10.27Q41.28-10.27 41.71-9.82Q42.14-9.38 42.14-8.49Q42.14-7.60 41.53-6.97Q40.92-6.33 40.12-6.33Q39.31-6.33 38.86-6.86Q38.40-7.39 38.40-8.19Z"/><path xml:space="preserve" font-family="Acme" font-size="24" font-style="normal" font-weight="normal" style="stroke: none; stroke-width: 1; stroke-dasharray: none; stroke-linecap: butt; stroke-dashoffset: 0; stroke-linejoin: miter; stroke-miterlimit: 4; is-custom-font: none; font-file-url: none; fill: rgb(115,14,14); fill-opacity: 0.82; fill-rule: nonzero; opacity: 1; white-space: pre;" d="M45.77-4.08L47.16-4.08L47.16-6.69L50.40-7.32L50.09-4.08L52.99-4.08L52.73-2.11L49.99-2.11L49.87 2.91Q49.87 4.04 50.09 4.41Q50.30 4.78 50.88 4.78Q51.46 4.78 52.42 4.52L52.42 4.52L52.56 6.22Q50.98 7.54 49.78 7.54Q48.58 7.54 47.81 6.66Q47.04 5.79 47.04 4.37L47.04 4.37L47.18 1.68L47.16-2.11L45.50-2.11L45.77-4.08Z"/><path xml:space="preserve" font-family="Acme" font-size="24" font-style="normal" font-weight="normal" style="stroke: none; stroke-width: 1; stroke-dasharray: none; stroke-linecap: butt; stroke-dashoffset: 0; stroke-linejoin: miter; stroke-miterlimit: 4; is-custom-font: none; font-file-url: none; fill: rgb(115,14,14); fill-opacity: 0.82; fill-rule: nonzero; opacity: 1; white-space: pre;" d="M59.42 7.54L59.42 7.54Q58.13 7.54 57.32 6.69Q56.52 5.84 56.52 4.44L56.52 4.44L56.66 1.68L56.40-4.08L59.62-4.68L59.30 2.62Q59.30 3.65 59.68 4.13Q60.05 4.61 60.86 4.61Q61.68 4.61 63.12 3.80L63.12 3.80L63.12 2.36L62.86-3.96L66.10-4.56L65.81 1.44L65.83 3.41Q65.83 4.95 66.62 6.51L66.62 6.51L64.13 7.61Q63.34 6.05 63.17 5.12L63.17 5.12Q61.01 7.54 59.42 7.54Z"/><path xml:space="preserve" font-family="Acme" font-size="24" font-style="normal" font-weight="normal" style="stroke: none; stroke-width: 1; stroke-dasharray: none; stroke-linecap: butt; stroke-dashoffset: 0; stroke-linejoin: miter; stroke-miterlimit: 4; is-custom-font: none; font-file-url: none; fill: rgb(115,14,14); fill-opacity: 0.82; fill-rule: nonzero; opacity: 1; white-space: pre;" d="M70.32-4.05L70.32-4.05L73.22-4.68Q73.44-2.83 73.51-1.17L73.51-1.17Q75.70-4.56 77.62-4.56L77.62-4.56L77.35-0.81Q75.96-0.81 75.16-0.56Q74.35-0.31 73.51 0.44L73.51 0.44L73.51 1.30L73.78 6.94L70.56 7.54L70.85 1.71Q70.75-1.51 70.32-4.05Z"/><path xml:space="preserve" font-family="Acme" font-size="24" font-style="normal" font-weight="normal" style="stroke: none; stroke-width: 1; stroke-dasharray: none; stroke-linecap: butt; stroke-dashoffset: 0; stroke-linejoin: miter; stroke-miterlimit: 4; is-custom-font: none; font-file-url: none; fill: rgb(115,14,14); fill-opacity: 0.82; fill-rule: nonzero; opacity: 1; white-space: pre;" d="M85.25 5.09L85.25 5.09Q85.94 5.09 86.71 4.73Q87.48 4.37 87.91 4.01L87.91 4.01L88.34 3.65L89.45 5.00Q89.21 5.40 88.70 5.93Q88.20 6.46 87.68 6.83Q87.17 7.20 86.32 7.50Q85.46 7.80 84.55 7.80L84.55 7.80Q82.61 7.80 81.38 6.33Q80.16 4.85 80.16 2.52L80.16 2.52Q80.16-0.40 81.86-2.61Q83.57-4.82 85.85-4.82L85.85-4.82Q87.60-4.82 88.57-3.84Q89.54-2.85 89.54-1.08L89.54-1.08Q89.54-0.02 89.18 1.32L89.18 1.32L88.70 1.83L82.70 2.38Q83.11 5.09 85.25 5.09ZM85.25-2.35L85.25-2.35Q84.19-2.35 83.47-1.50Q82.75-0.64 82.63 0.68L82.63 0.68L86.71 0.17Q86.78-0.38 86.78-0.74L86.78-0.74Q86.78-2.35 85.25-2.35Z"/></g>
</svg>